packet|codec_type=video|stream_index=0|pts=126000|pts_time=1.400000|dts=126000|dts_time=1.400000|duration=6000|duration_time=0.066667|size=1290|pos=564|flags=K_|side_data|side_data_type=MPEGTS Stream ID|id=224
|data_hash=CRC32:9c4b744e
packet|codec_type=video|stream_index=0|pts=132000|pts_time=1.466667|dts=132000|dts_time=1.466667|duration=6000|duration_time=0.066667|size=21|pos=2068|flags=__|side_data|side_data_type=MPEGTS Stream ID|id=224
|data_hash=CRC32:f5490de8
packet|codec_type=video|stream_index=0|pts=138000|pts_time=1.533333|dts=138000|dts_time=1.533333|duration=6000|duration_time=0.066667|size=15|pos=2256|flags=__|side_data|side_data_type=MPEGTS Stream ID|id=224
|data_hash=CRC32:d82fbcc0
packet|codec_type=video|stream_index=0|pts=144000|pts_time=1.600000|dts=144000|dts_time=1.600000|duration=6000|duration_time=0.066667|size=15|pos=2444|flags=__|side_data|side_data_type=MPEGTS Stream ID|id=224
|data_hash=CRC32:e062fa20
packet|codec_type=video|stream_index=0|pts=150000|pts_time=1.666667|dts=150000|dts_time=1.666667|duration=6000|duration_time=0.066667|size=15|pos=2632|flags=__|side_data|side_data_type=MPEGTS Stream ID|id=224
|data_hash=CRC32:49802a80
packet|codec_type=video|stream_index=0|pts=156000|pts_time=1.733333|dts=156000|dts_time=1.733333|duration=6000|duration_time=0.066667|size=15|pos=2820|flags=__|side_data|side_data_type=MPEGTS Stream ID|id=224
|data_hash=CRC32:71cd6c60
packet|codec_type=video|stream_index=0|pts=162000|pts_time=1.800000|dts=162000|dts_time=1.800000|duration=6000|duration_time=0.066667|size=15|pos=3008|flags=__|side_data|side_data_type=MPEGTS Stream ID|id=224
|data_hash=CRC32:391aa740
packet|codec_type=video|stream_index=0|pts=168000|pts_time=1.866667|dts=168000|dts_time=1.866667|duration=6000|duration_time=0.066667|size=15|pos=3196|flags=__|side_data|side_data_type=MPEGTS Stream ID|id=224
|data_hash=CRC32:0157e1a0
packet|codec_type=video|stream_index=0|pts=174000|pts_time=1.933333|dts=174000|dts_time=1.933333|duration=6000|duration_time=0.066667|size=15|pos=3384|flags=__|side_data|side_data_type=MPEGTS Stream ID|id=224
|data_hash=CRC32:10095665
packet|codec_type=video|stream_index=0|pts=180000|pts_time=2.000000|dts=180000|dts_time=2.000000|duration=6000|duration_time=0.066667|size=15|pos=3572|flags=__|side_data|side_data_type=MPEGTS Stream ID|id=224
|data_hash=CRC32:28441085
packet|codec_type=video|stream_index=0|pts=186000|pts_time=2.066667|dts=186000|dts_time=2.066667|duration=6000|duration_time=0.066667|size=15|pos=3760|flags=__|side_data|side_data_type=MPEGTS Stream ID|id=224
|data_hash=CRC32:6093dba5
packet|codec_type=video|stream_index=0|pts=192000|pts_time=2.133333|dts=192000|dts_time=2.133333|duration=6000|duration_time=0.066667|size=15|pos=3948|flags=__|side_data|side_data_type=MPEGTS Stream ID|id=224
|data_hash=CRC32:58de9d45
packet|codec_type=video|stream_index=0|pts=198000|pts_time=2.200000|dts=198000|dts_time=2.200000|duration=6000|duration_time=0.066667|size=15|pos=4136|flags=__|side_data|side_data_type=MPEGTS Stream ID|id=224
|data_hash=CRC32:f13c4de5
packet|codec_type=video|stream_index=0|pts=204000|pts_time=2.266667|dts=204000|dts_time=2.266667|duration=6000|duration_time=0.066667|size=15|pos=4324|flags=__|side_data|side_data_type=MPEGTS Stream ID|id=224
|data_hash=CRC32:c9710b05
packet|codec_type=video|stream_index=0|pts=210000|pts_time=2.333333|dts=210000|dts_time=2.333333|duration=6000|duration_time=0.066667|size=15|pos=4512|flags=__|side_data|side_data_type=MPEGTS Stream ID|id=224
|data_hash=CRC32:81a6c025
packet|codec_type=video|stream_index=0|pts=216000|pts_time=2.400000|dts=216000|dts_time=2.400000|duration=6000|duration_time=0.066667|size=15|pos=4700|flags=__|side_data|side_data_type=MPEGTS Stream ID|id=224
|data_hash=CRC32:b9eb86c5
packet|codec_type=video|stream_index=0|pts=222000|pts_time=2.466667|dts=222000|dts_time=2.466667|duration=6000|duration_time=0.066667|size=15|pos=4888|flags=__|side_data|side_data_type=MPEGTS Stream ID|id=224
|data_hash=CRC32:a8b53100
packet|codec_type=video|stream_index=0|pts=228000|pts_time=2.533333|dts=228000|dts_time=2.533333|duration=6000|duration_time=0.066667|size=15|pos=5076|flags=__|side_data|side_data_type=MPEGTS Stream ID|id=224
|data_hash=CRC32:90f877e0
packet|codec_type=video|stream_index=0|pts=234000|pts_time=2.600000|dts=234000|dts_time=2.600000|duration=6000|duration_time=0.066667|size=15|pos=5264|flags=__|side_data|side_data_type=MPEGTS Stream ID|id=224
|data_hash=CRC32:d82fbcc0
packet|codec_type=video|stream_index=0|pts=240000|pts_time=2.666667|dts=240000|dts_time=2.666667|duration=6000|duration_time=0.066667|size=15|pos=5452|flags=__|side_data|side_data_type=MPEGTS Stream ID|id=224
|data_hash=CRC32:e062fa20
packet|codec_type=video|stream_index=0|pts=246000|pts_time=2.733333|dts=246000|dts_time=2.733333|duration=6000|duration_time=0.066667|size=15|pos=5640|flags=__|side_data|side_data_type=MPEGTS Stream ID|id=224
|data_hash=CRC32:49802a80
packet|codec_type=video|stream_index=0|pts=252000|pts_time=2.800000|dts=252000|dts_time=2.800000|duration=6000|duration_time=0.066667|size=15|pos=5828|flags=__|side_data|side_data_type=MPEGTS Stream ID|id=224
|data_hash=CRC32:71cd6c60
packet|codec_type=video|stream_index=0|pts=258000|pts_time=2.866667|dts=258000|dts_time=2.866667|duration=6000|duration_time=0.066667|size=15|pos=6016|flags=__|side_data|side_data_type=MPEGTS Stream ID|id=224
|data_hash=CRC32:391aa740
packet|codec_type=video|stream_index=0|pts=264000|pts_time=2.933333|dts=264000|dts_time=2.933333|duration=6000|duration_time=0.066667|size=15|pos=6204|flags=__|side_data|side_data_type=MPEGTS Stream ID|id=224
|data_hash=CRC32:0157e1a0
packet|codec_type=video|stream_index=0|pts=270000|pts_time=3.000000|dts=270000|dts_time=3.000000|duration=6000|duration_time=0.066667|size=15|pos=6392|flags=__|side_data|side_data_type=MPEGTS Stream ID|id=224
|data_hash=CRC32:10095665
packet|codec_type=video|stream_index=0|pts=276000|pts_time=3.066667|dts=276000|dts_time=3.066667|duration=6000|duration_time=0.066667|size=15|pos=6580|flags=__|side_data|side_data_type=MPEGTS Stream ID|id=224
|data_hash=CRC32:28441085
packet|codec_type=video|stream_index=0|pts=282000|pts_time=3.133333|dts=282000|dts_time=3.133333|duration=6000|duration_time=0.066667|size=15|pos=6768|flags=__|side_data|side_data_type=MPEGTS Stream ID|id=224
|data_hash=CRC32:6093dba5
packet|codec_type=video|stream_index=0|pts=288000|pts_time=3.200000|dts=288000|dts_time=3.200000|duration=6000|duration_time=0.066667|size=15|pos=6956|flags=__|side_data|side_data_type=MPEGTS Stream ID|id=224
|data_hash=CRC32:58de9d45
packet|codec_type=video|stream_index=0|pts=294000|pts_time=3.266667|dts=294000|dts_time=3.266667|duration=6000|duration_time=0.066667|size=15|pos=7144|flags=__|side_data|side_data_type=MPEGTS Stream ID|id=224
|data_hash=CRC32:f13c4de5
packet|codec_type=video|stream_index=0|pts=300000|pts_time=3.333333|dts=300000|dts_time=3.333333|duration=6000|duration_time=0.066667|size=15|pos=7332|flags=__|side_data|side_data_type=MPEGTS Stream ID|id=224
|data_hash=CRC32:c9710b05
packet|codec_type=video|stream_index=0|pts=306000|pts_time=3.400000|dts=306000|dts_time=3.400000|duration=6000|duration_time=0.066667|size=15|pos=7520|flags=__|side_data|side_data_type=MPEGTS Stream ID|id=224
|data_hash=CRC32:81a6c025
packet|codec_type=video|stream_index=0|pts=312000|pts_time=3.466667|dts=312000|dts_time=3.466667|duration=6000|duration_time=0.066667|size=15|pos=7708|flags=__|side_data|side_data_type=MPEGTS Stream ID|id=224
|data_hash=CRC32:b9eb86c5
packet|codec_type=video|stream_index=0|pts=318000|pts_time=3.533333|dts=318000|dts_time=3.533333|duration=6000|duration_time=0.066667|size=15|pos=7896|flags=__|side_data|side_data_type=MPEGTS Stream ID|id=224
|data_hash=CRC32:a8b53100
packet|codec_type=video|stream_index=0|pts=324000|pts_time=3.600000|dts=324000|dts_time=3.600000|duration=6000|duration_time=0.066667|size=15|pos=8460|flags=__|side_data|side_data_type=MPEGTS Stream ID|id=224
|data_hash=CRC32:90f877e0
packet|codec_type=video|stream_index=0|pts=330000|pts_time=3.666667|dts=330000|dts_time=3.666667|duration=6000|duration_time=0.066667|size=15|pos=8648|flags=__|side_data|side_data_type=MPEGTS Stream ID|id=224
|data_hash=CRC32:d82fbcc0
packet|codec_type=video|stream_index=0|pts=336000|pts_time=3.733333|dts=336000|dts_time=3.733333|duration=6000|duration_time=0.066667|size=15|pos=8836|flags=__|side_data|side_data_type=MPEGTS Stream ID|id=224
|data_hash=CRC32:e062fa20
packet|codec_type=video|stream_index=0|pts=342000|pts_time=3.800000|dts=342000|dts_time=3.800000|duration=6000|duration_time=0.066667|size=15|pos=9024|flags=__|side_data|side_data_type=MPEGTS Stream ID|id=224
|data_hash=CRC32:49802a80
packet|codec_type=video|stream_index=0|pts=348000|pts_time=3.866667|dts=348000|dts_time=3.866667|duration=6000|duration_time=0.066667|size=15|pos=9212|flags=__|side_data|side_data_type=MPEGTS Stream ID|id=224
|data_hash=CRC32:71cd6c60
packet|codec_type=video|stream_index=0|pts=354000|pts_time=3.933333|dts=354000|dts_time=3.933333|duration=6000|duration_time=0.066667|size=15|pos=9400|flags=__|side_data|side_data_type=MPEGTS Stream ID|id=224
|data_hash=CRC32:391aa740
packet|codec_type=video|stream_index=0|pts=360000|pts_time=4.000000|dts=360000|dts_time=4.000000|duration=6000|duration_time=0.066667|size=15|pos=9588|flags=__|side_data|side_data_type=MPEGTS Stream ID|id=224
|data_hash=CRC32:0157e1a0
packet|codec_type=video|stream_index=0|pts=366000|pts_time=4.066667|dts=366000|dts_time=4.066667|duration=6000|duration_time=0.066667|size=15|pos=9776|flags=__|side_data|side_data_type=MPEGTS Stream ID|id=224
|data_hash=CRC32:10095665
packet|codec_type=video|stream_index=0|pts=372000|pts_time=4.133333|dts=372000|dts_time=4.133333|duration=6000|duration_time=0.066667|size=15|pos=9964|flags=__|side_data|side_data_type=MPEGTS Stream ID|id=224
|data_hash=CRC32:28441085
packet|codec_type=video|stream_index=0|pts=378000|pts_time=4.200000|dts=378000|dts_time=4.200000|duration=6000|duration_time=0.066667|size=15|pos=10152|flags=__|side_data|side_data_type=MPEGTS Stream ID|id=224
|data_hash=CRC32:6093dba5
packet|codec_type=video|stream_index=0|pts=384000|pts_time=4.266667|dts=384000|dts_time=4.266667|duration=6000|duration_time=0.066667|size=15|pos=10340|flags=__|side_data|side_data_type=MPEGTS Stream ID|id=224
|data_hash=CRC32:58de9d45
packet|codec_type=video|stream_index=0|pts=390000|pts_time=4.333333|dts=390000|dts_time=4.333333|duration=6000|duration_time=0.066667|size=15|pos=10528|flags=__|side_data|side_data_type=MPEGTS Stream ID|id=224
|data_hash=CRC32:f13c4de5
packet|codec_type=video|stream_index=0|pts=396000|pts_time=4.400000|dts=396000|dts_time=4.400000|duration=6000|duration_time=0.066667|size=15|pos=10716|flags=__|side_data|side_data_type=MPEGTS Stream ID|id=224
|data_hash=CRC32:c9710b05
packet|codec_type=video|stream_index=0|pts=402000|pts_time=4.466667|dts=402000|dts_time=4.466667|duration=6000|duration_time=0.066667|size=15|pos=10904|flags=__|side_data|side_data_type=MPEGTS Stream ID|id=224
|data_hash=CRC32:81a6c025
packet|codec_type=video|stream_index=0|pts=408000|pts_time=4.533333|dts=408000|dts_time=4.533333|duration=6000|duration_time=0.066667|size=15|pos=11092|flags=__|side_data|side_data_type=MPEGTS Stream ID|id=224
|data_hash=CRC32:b9eb86c5
packet|codec_type=video|stream_index=0|pts=414000|pts_time=4.600000|dts=414000|dts_time=4.600000|duration=6000|duration_time=0.066667|size=15|pos=11280|flags=__|side_data|side_data_type=MPEGTS Stream ID|id=224
|data_hash=CRC32:a8b53100
packet|codec_type=video|stream_index=0|pts=420000|pts_time=4.666667|dts=420000|dts_time=4.666667|duration=6000|duration_time=0.066667|size=15|pos=11468|flags=__|side_data|side_data_type=MPEGTS Stream ID|id=224
|data_hash=CRC32:90f877e0
packet|codec_type=video|stream_index=0|pts=426000|pts_time=4.733333|dts=426000|dts_time=4.733333|duration=6000|duration_time=0.066667|size=15|pos=11656|flags=__|side_data|side_data_type=MPEGTS Stream ID|id=224
|data_hash=CRC32:d82fbcc0
packet|codec_type=video|stream_index=0|pts=432000|pts_time=4.800000|dts=432000|dts_time=4.800000|duration=6000|duration_time=0.066667|size=15|pos=11844|flags=__|side_data|side_data_type=MPEGTS Stream ID|id=224
|data_hash=CRC32:e062fa20
packet|codec_type=video|stream_index=0|pts=438000|pts_time=4.866667|dts=438000|dts_time=4.866667|duration=6000|duration_time=0.066667|size=15|pos=12032|flags=__|side_data|side_data_type=MPEGTS Stream ID|id=224
|data_hash=CRC32:49802a80
packet|codec_type=video|stream_index=0|pts=444000|pts_time=4.933333|dts=444000|dts_time=4.933333|duration=6000|duration_time=0.066667|size=15|pos=12220|flags=__|side_data|side_data_type=MPEGTS Stream ID|id=224
|data_hash=CRC32:71cd6c60
packet|codec_type=video|stream_index=0|pts=450000|pts_time=5.000000|dts=450000|dts_time=5.000000|duration=6000|duration_time=0.066667|size=15|pos=12408|flags=__|side_data|side_data_type=MPEGTS Stream ID|id=224
|data_hash=CRC32:391aa740
packet|codec_type=video|stream_index=0|pts=456000|pts_time=5.066667|dts=456000|dts_time=5.066667|duration=6000|duration_time=0.066667|size=15|pos=12596|flags=__|side_data|side_data_type=MPEGTS Stream ID|id=224
|data_hash=CRC32:0157e1a0
packet|codec_type=video|stream_index=0|pts=462000|pts_time=5.133333|dts=462000|dts_time=5.133333|duration=6000|duration_time=0.066667|size=15|pos=12784|flags=__|side_data|side_data_type=MPEGTS Stream ID|id=224
|data_hash=CRC32:10095665
packet|codec_type=video|stream_index=0|pts=468000|pts_time=5.200000|dts=468000|dts_time=5.200000|duration=6000|duration_time=0.066667|size=15|pos=12972|flags=__|side_data|side_data_type=MPEGTS Stream ID|id=224
|data_hash=CRC32:28441085
packet|codec_type=video|stream_index=0|pts=474000|pts_time=5.266667|dts=474000|dts_time=5.266667|duration=6000|duration_time=0.066667|size=15|pos=13160|flags=__|side_data|side_data_type=MPEGTS Stream ID|id=224
|data_hash=CRC32:6093dba5
packet|codec_type=video|stream_index=0|pts=480000|pts_time=5.333333|dts=480000|dts_time=5.333333|duration=6000|duration_time=0.066667|size=15|pos=13348|flags=__|side_data|side_data_type=MPEGTS Stream ID|id=224
|data_hash=CRC32:58de9d45
packet|codec_type=video|stream_index=0|pts=486000|pts_time=5.400000|dts=486000|dts_time=5.400000|duration=6000|duration_time=0.066667|size=15|pos=13536|flags=__|side_data|side_data_type=MPEGTS Stream ID|id=224
|data_hash=CRC32:f13c4de5
packet|codec_type=video|stream_index=0|pts=492000|pts_time=5.466667|dts=492000|dts_time=5.466667|duration=6000|duration_time=0.066667|size=15|pos=13724|flags=__|side_data|side_data_type=MPEGTS Stream ID|id=224
|data_hash=CRC32:c9710b05
packet|codec_type=video|stream_index=0|pts=498000|pts_time=5.533333|dts=498000|dts_time=5.533333|duration=6000|duration_time=0.066667|size=15|pos=13912|flags=__|side_data|side_data_type=MPEGTS Stream ID|id=224
|data_hash=CRC32:81a6c025
packet|codec_type=video|stream_index=0|pts=504000|pts_time=5.600000|dts=504000|dts_time=5.600000|duration=6000|duration_time=0.066667|size=15|pos=14100|flags=__|side_data|side_data_type=MPEGTS Stream ID|id=224
|data_hash=CRC32:b9eb86c5
packet|codec_type=video|stream_index=0|pts=510000|pts_time=5.666667|dts=510000|dts_time=5.666667|duration=6000|duration_time=0.066667|size=15|pos=14288|flags=__|side_data|side_data_type=MPEGTS Stream ID|id=224
|data_hash=CRC32:a8b53100
packet|codec_type=video|stream_index=0|pts=516000|pts_time=5.733333|dts=516000|dts_time=5.733333|duration=6000|duration_time=0.066667|size=15|pos=14476|flags=__|side_data|side_data_type=MPEGTS Stream ID|id=224
|data_hash=CRC32:90f877e0
packet|codec_type=video|stream_index=0|pts=522000|pts_time=5.800000|dts=522000|dts_time=5.800000|duration=6000|duration_time=0.066667|size=15|pos=14664|flags=__|side_data|side_data_type=MPEGTS Stream ID|id=224
|data_hash=CRC32:d82fbcc0
packet|codec_type=video|stream_index=0|pts=528000|pts_time=5.866667|dts=528000|dts_time=5.866667|duration=6000|duration_time=0.066667|size=15|pos=14852|flags=__|side_data|side_data_type=MPEGTS Stream ID|id=224
|data_hash=CRC32:e062fa20
packet|codec_type=video|stream_index=0|pts=534000|pts_time=5.933333|dts=534000|dts_time=5.933333|duration=6000|duration_time=0.066667|size=15|pos=15040|flags=__|side_data|side_data_type=MPEGTS Stream ID|id=224
|data_hash=CRC32:49802a80
packet|codec_type=video|stream_index=0|pts=540000|pts_time=6.000000|dts=540000|dts_time=6.000000|duration=6000|duration_time=0.066667|size=15|pos=15228|flags=__|side_data|side_data_type=MPEGTS Stream ID|id=224
|data_hash=CRC32:71cd6c60
packet|codec_type=video|stream_index=0|pts=546000|pts_time=6.066667|dts=546000|dts_time=6.066667|duration=6000|duration_time=0.066667|size=15|pos=15416|flags=__|side_data|side_data_type=MPEGTS Stream ID|id=224
|data_hash=CRC32:391aa740
packet|codec_type=video|stream_index=0|pts=552000|pts_time=6.133333|dts=552000|dts_time=6.133333|duration=6000|duration_time=0.066667|size=16|pos=15604|flags=__|side_data|side_data_type=MPEGTS Stream ID|id=224
|data_hash=CRC32:cca62b67
packet|codec_type=video|stream_index=0|pts=558000|pts_time=6.200000|dts=558000|dts_time=6.200000|duration=6000|duration_time=0.066667|size=16|pos=15792|flags=__|side_data|side_data_type=MPEGTS Stream ID|id=224
|data_hash=CRC32:27b943ef
packet|codec_type=video|stream_index=0|pts=564000|pts_time=6.266667|dts=564000|dts_time=6.266667|duration=6000|duration_time=0.066667|size=16|pos=16356|flags=__|data_hash=CRC32:f7116111
stream|index=0|codec_name=h264|profile=578|codec_type=video|codec_tag_string=[27][0][0][0]|codec_tag=0x001b|width=82|height=144|coded_width=82|coded_height=144|closed_captions=0|film_grain=0|has_b_frames=0|sample_aspect_ratio=1:1|display_aspect_ratio=41:72|pix_fmt=yuv420p|level=10|color_range=unknown|color_space=unknown|color_transfer=unknown|color_primaries=unknown|chroma_location=left|field_order=progressive|refs=1|is_avc=false|nal_length_size=0|id=0x100|r_frame_rate=15/1|avg_frame_rate=15/1|time_base=1/90000|start_pts=126000|start_time=1.400000|duration_ts=444000|duration=4.933333|bit_rate=N/A|max_bit_rate=N/A|bits_per_raw_sample=8|nb_frames=N/A|nb_read_frames=N/A|nb_read_packets=74|extradata_size=35|extradata_hash=CRC32:e62cae27|disposition:default=0|disposition:dub=0|disposition:original=0|disposition:comment=0|disposition:lyrics=0|disposition:karaoke=0|disposition:forced=0|disposition:hearing_impaired=0|disposition:visual_impaired=0|disposition:clean_effects=0|disposition:attached_pic=0|disposition:timed_thumbnails=0|disposition:captions=0|disposition:descriptions=0|disposition:metadata=0|disposition:dependent=0|disposition:still_image=0
format|filename=h264small.ts|nb_streams=1|nb_programs=1|format_name=mpegts|start_time=1.400000|duration=4.933333|size=16544|bit_rate=26828|probe_score=50
